<svg width="126" height="126" viewBox="0 0 126 126" fill="none" xmlns="http://www.w3.org/2000/svg">
    <g clip-path="url(#clip0_1984_13960)">
        <path
            d="M14.3439 31.2448L11.1303 27.2774C9.28523 24.9994 9.6778 21.6491 11.9995 19.8593L29.1143 6.66641C31.3583 4.93666 34.5725 5.31328 36.3558 7.51491L39.5694 11.4823C41.4145 13.7603 41.0219 17.1107 38.7002 18.9004L35.6176 21.2766L69.2894 64.9579L80.5679 56.2639C82.6847 54.6321 85.7 54.8504 87.4202 56.896C98.6578 70.2599 112.147 94.7845 94.1316 108.671C76.0928 122.577 56.0785 102.99 46.2168 88.5707C44.7232 86.3867 45.2935 83.4551 47.3891 81.8397L57.9616 73.6899L24.2899 30.0086L21.5854 32.0933C19.3414 33.8231 16.1272 33.4465 14.3439 31.2448Z"
            fill="#F18805" />
    </g>
    <defs>
        <clipPath id="clip0_1984_13960">
            <rect width="125.25" height="125.25" fill="white" />
        </clipPath>
    </defs>
</svg>